<svg width="100" height="100" viewBox="0 0 100 100" fill="none" xmlns="http://www.w3.org/2000/svg">
<g id="canva">
<g id="canva_2">
<path id="Vector" d="M50 100C77.6142 100 100 77.6142 100 50C100 22.3858 77.6142 0 50 0C22.3858 0 0 22.3858 0 50C0 77.6142 22.3858 100 50 100Z" fill="#7D2AE7"/>
<path id="Vector_2" d="M50 100C77.6142 100 100 77.6142 100 50C100 22.3858 77.6142 0 50 0C22.3858 0 0 22.3858 0 50C0 77.6142 22.3858 100 50 100Z" fill="url(#paint0_radial_790_4017)"/>
<path id="Vector_3" d="M50 100C77.6142 100 100 77.6142 100 50C100 22.3858 77.6142 0 50 0C22.3858 0 0 22.3858 0 50C0 77.6142 22.3858 100 50 100Z" fill="url(#paint1_radial_790_4017)"/>
<path id="Vector_4" d="M50 100C77.6142 100 100 77.6142 100 50C100 22.3858 77.6142 0 50 0C22.3858 0 0 22.3858 0 50C0 77.6142 22.3858 100 50 100Z" fill="url(#paint2_radial_790_4017)"/>
<path id="Vector_5" d="M50 100C77.6142 100 100 77.6142 100 50C100 22.3858 77.6142 0 50 0C22.3858 0 0 22.3858 0 50C0 77.6142 22.3858 100 50 100Z" fill="url(#paint3_radial_790_4017)"/>
<path id="Vector_6" d="M71.5863 60.2568C71.1736 60.2568 70.8105 60.6053 70.4326 61.3663C66.1652 70.0195 58.7947 76.1421 50.2655 76.1421C40.4034 76.1421 34.2961 67.2395 34.2961 54.9405C34.2961 34.1072 45.9039 22.0617 56.0994 22.0617C60.8636 22.0617 63.7731 25.0557 63.7731 29.8202C63.7731 35.4748 60.5605 38.4688 60.5605 40.4631C60.5605 41.3583 61.1173 41.9004 62.2215 41.9004C66.6578 41.9004 71.8647 36.8027 71.8647 29.6013C71.8647 22.6187 65.7873 17.4863 55.5921 17.4863C38.7423 17.4863 23.7676 33.1075 23.7676 54.7216C23.7676 71.4521 33.3214 82.5079 48.0624 82.5079C63.7084 82.5079 72.7552 66.9411 72.7552 61.8884C72.7552 60.7695 72.1831 60.2568 71.5863 60.2568Z" fill="white"/>
</g>
</g>
<defs>
<radialGradient id="paint0_radial_790_4017" cx="0" cy="0" r="1" gradientUnits="userSpaceOnUse" gradientTransform="translate(19.3162 88.6322) rotate(-49.416) scale(77.3416)">
<stop stop-color="#6420FF"/>
<stop offset="1" stop-color="#6420FF" stop-opacity="0"/>
</radialGradient>
<radialGradient id="paint1_radial_790_4017" cx="0" cy="0" r="1" gradientUnits="userSpaceOnUse" gradientTransform="translate(26.4735 11.3682) rotate(54.703) scale(87.2168)">
<stop stop-color="#00C4CC"/>
<stop offset="1" stop-color="#00C4CC" stop-opacity="0"/>
</radialGradient>
<radialGradient id="paint2_radial_790_4017" cx="0" cy="0" r="1" gradientUnits="userSpaceOnUse" gradientTransform="translate(19.3158 88.6316) rotate(-45.1954) scale(76.4053 35.1398)">
<stop stop-color="#6420FF"/>
<stop offset="1" stop-color="#6420FF" stop-opacity="0"/>
</radialGradient>
<radialGradient id="paint3_radial_790_4017" cx="0" cy="0" r="1" gradientUnits="userSpaceOnUse" gradientTransform="translate(40.8947 13.4737) rotate(66.5198) scale(78.7295 131.889)">
<stop stop-color="#00C4CC" stop-opacity="0.725916"/>
<stop offset="0.0001" stop-color="#00C4CC"/>
<stop offset="1" stop-color="#00C4CC" stop-opacity="0"/>
</radialGradient>
</defs>
</svg>
