<svg width="100" height="100" viewBox="0 0 100 100" fill="none" xmlns="http://www.w3.org/2000/svg">
<g id="dart">
<g id="dart_2" clip-path="url(#clip0_790_4137)">
<path id="path2" d="M26.878 27.0588L20.4526 20.6335V66.9683L20.5431 69.1403C20.5431 70.1357 20.7241 71.3122 21.0861 72.4887L71.9458 90.4072L84.6155 84.7964L26.878 27.0588Z" fill="#00C4B3"/>
<path id="path4" d="M84.6152 84.7963L71.9455 90.4072L21.1763 72.4886C22.1717 76.1991 24.2532 80.362 26.6061 82.7149L43.1672 99.1855L80.0903 99.276L84.6152 84.7963Z" fill="#22D3C5"/>
<path id="path6" d="M20.6335 20.6335L0.905039 50.4977C-0.723921 52.2172 0.090559 55.8371 2.71499 58.552L14.1177 70.0452L21.267 72.5792C20.9955 71.4027 20.724 70.2262 20.724 69.2308L20.6335 67.0588V20.6335Z" fill="#0075C9"/>
<path id="path8" d="M72.3078 21.1765C71.1314 20.905 69.9549 20.724 68.9594 20.6335L66.697 20.543H20.4526L84.6155 84.7059L90.2264 72.0362L72.3078 21.1765Z" fill="#0075C9"/>
<path id="path10" d="M82.534 26.6064C80.1811 24.2534 76.1087 22.0815 72.3078 21.1765L90.2264 72.0362L84.6155 84.7059L98.3712 80.2715V42.534L82.534 26.6064Z" fill="#00A8E1"/>
<path id="path12" d="M69.7738 14.1176L58.2806 2.71493C55.6562 0.090498 52.0363 -0.723982 50.2263 0.904978L20.3621 20.6335H66.6064L68.8689 20.724C69.8643 20.724 71.0408 20.905 72.2173 21.267L69.7738 14.1176Z" fill="#00C4B3"/>
</g>
</g>
<defs>
<clipPath id="clip0_790_4137">
<rect width="100" height="100" fill="white"/>
</clipPath>
</defs>
</svg>
