<svg width="100" height="100" viewBox="0 0 100 100" fill="none" xmlns="http://www.w3.org/2000/svg">
<g id="flutterflow">
<path id="flutterflow_2" fill-rule="evenodd" clip-rule="evenodd" d="M90.3398 0C93.3484 0 96.1334 1.62806 97.5443 4.27463C98.8962 6.80966 98.8388 9.79696 97.3944 12.2765L97.3452 12.3599L84.6856 33.5373C83.254 35.932 80.6696 37.4267 77.9072 37.4585L77.8171 37.459L63.3607 37.4589L69.3693 51.2148L69.3933 51.2551L69.4302 51.3201C70.8452 53.8776 70.8107 56.9184 69.3433 59.4378L69.2938 59.5216L56.6342 80.699C55.2026 83.0937 52.6182 84.5883 49.856 84.6202L49.7659 84.6207L32.0225 84.6206L19.267 98.0742L19.2429 98.0991C18.0426 99.3193 16.4208 100 14.7299 100C14.3072 100 13.8843 99.9572 13.4658 99.872C11.4033 99.4509 9.68957 98.0356 8.86468 96.0836L8.84141 96.0278L2.12883 80.6186L2.09352 80.5595L2.05684 80.4959C2.05075 80.4851 2.04455 80.474 2.03808 80.4622C0.623049 77.9049 0.657322 74.8642 2.1246 72.3446L2.17404 72.2608L14.4525 51.721L5.40513 31.0082L5.57092 30.9237L5.56841 30.9113C5.18559 29.006 5.49376 27.0191 6.4769 25.2789L6.5312 25.1842L6.58139 25.0991L19.2411 3.92162C20.6728 1.52706 23.2574 0.0323866 26.0194 0H26.1095H90.3398ZM23.8666 84.4596L10.4157 84.4595L14.3663 93.5983L14.376 93.6226C14.4415 93.7863 14.5475 93.8759 14.7051 93.9083C14.8458 93.9373 14.9596 93.9075 15.0672 93.8094L15.086 93.7911L23.8666 84.4596ZM62.3186 53.0405H21.6596C21.6147 53.0405 21.5698 53.0421 21.525 53.0451L21.5127 53.0461L32.6611 78.5473H49.7639C50.4669 78.5473 51.1441 78.1709 51.5292 77.5664L51.5598 77.5169L64.2377 56.3265C64.6159 55.6944 64.6578 54.961 64.3581 54.3011C64.0126 53.54 63.2105 53.0405 62.3186 53.0405ZM17.4331 58.277L7.37101 75.2366C6.97063 75.9117 6.94742 76.7022 7.30596 77.3979L7.34399 77.4686L7.36425 77.5033L7.40487 77.5697L7.48534 77.6894L7.57517 77.8062L7.66111 77.9044L7.67602 77.9203L7.73414 77.9792L7.78464 78.0273C8.10116 78.3146 8.49243 78.4899 8.92397 78.5349L9.02092 78.5432L9.07705 78.5461L9.14818 78.5473H26.2205L17.4331 58.277ZM14.7872 37.5L19.2064 47.6351L19.2925 47.6058C20.0556 47.3504 20.8535 47.212 21.6602 47.1994L21.7813 47.1984L61.193 47.1983L56.9644 37.5002L14.7872 37.5ZM90.2275 5.91216H49.4234L60.5752 31.4189H77.6718C78.3761 31.4189 79.0539 31.0423 79.4392 30.4374L79.4698 30.3879L92.1485 9.19792C92.5266 8.56598 92.5684 7.83314 92.2691 7.17374C91.9306 6.42832 91.1544 5.93356 90.2844 5.91284L90.2275 5.91216ZM43.177 5.91216H26.1749C25.4757 5.91216 24.8014 6.28786 24.4178 6.89179L24.3873 6.94125L11.7419 28.1316C11.3644 28.7642 11.3226 29.4987 11.622 30.1595C11.9592 30.9042 12.7311 31.3976 13.596 31.4182L13.6525 31.4189H54.2994L43.177 5.91216Z" fill="#4B39EF"/>
</g>
</svg>
