<?xml version="1.0" encoding="utf-8"?>
<!-- Generator: Adobe Illustrator 23.0.1, SVG Export Plug-In . SVG Version: 6.00 Build 0)  -->
<svg version="1.1" id="Layer_1" xmlns="http://www.w3.org/2000/svg" xmlns:xlink="http://www.w3.org/1999/xlink" x="0px" y="0px"
	 viewBox="0 0 512 512" style="enable-background:new 0 0 512 512;" xml:space="preserve">
<style type="text/css">
	.st0{fill:#DDDDDD;}
	.st1{fill:#C6C6C6;}
	.st2{fill:#B7B7B7;}
	.st3{fill:#54A2DD;}
	.st4{fill:#FFE04A;}
	.st5{fill:#6D6D6D;}
	.st6{fill:#387BAD;}
	.st7{fill:#80BCE0;}
	.st8{fill:#F2F2F2;}
	.st9{fill:#FFF3BB;}
	.st10{fill:#6E6E6C;}
	.st11{fill:#4D4B78;}
</style>
<g>
	<polyline class="st0" points="109.92,256.99 51.77,281.66 123.34,403.81 203.33,366.08 110.89,253.86 	"/>
	<polyline class="st1" points="203.33,366.08 215.65,457.45 357.02,457.45 352.32,390.55 203.33,362.8 	"/>
	<polygon class="st1" points="77.85,336.15 45.8,383.9 127.55,501.02 203.91,370.37 127.55,403.81 	"/>
	<polyline class="st2" points="199.4,374.68 127.55,501.02 279.76,509.63 306.52,457.45 215.65,457.45 208.39,370.33 199.4,370.33 	
		"/>
	<path class="st3" d="M289.93,192.7c0,0-11.25,15.94-26.98,11.97c-15.73-3.97-51.63-45.86-17.77-90.69c0,0-13.23-45.6,28.48-58.45
		c0,0-5.71-30.46,43.45-36.63c0,0,26.41-21.66,56.9,0.31c30.49,21.98-8.4,45.67-8.4,45.67l-6.36,23.27l-51.75,88.52L289.93,192.7z"
		/>
	<path class="st3" d="M315.97,206.13c0,0-9.07,17.27,1.63,29.47c10.7,12.19,64.34,25.08,88.83-25.49c0,0,46.63-8.98,39.07-51.97
		c0,0,29.72-8.78,12.83-55.37c0,0,7.26-33.38-26.19-50.51c-33.44-17.13-36.84,28.27-36.84,28.27L377.49,96.8l-55.24,86.38
		L315.97,206.13z"/>
	<path class="st4" d="M199.41,249.72c-22.03-35.96-69.03-47.25-104.99-25.23c-4.18,2.56-8.02,5.46-11.51,8.63
		c6.14-10.45,14.86-19.59,25.92-26.37c35.96-22.03,82.96-10.73,104.98,25.23c19.47,31.78,12.9,72.18-13.71,96.35
		C213.93,304.81,214.65,274.62,199.41,249.72z"/>
	<path class="st4" d="M133.29,138.08c30.19,0.98,53.87,26.24,52.9,56.44c-0.29,8.99-2.74,17.41-6.84,24.77
		c-3.19-2.77-6.8-5.11-10.75-6.89c1.15-4.13,1.83-8.47,1.98-12.94c0.98-30.19-22.71-55.46-52.9-56.43
		c-3.51-0.11-6.95,0.11-10.29,0.63C115.18,139.81,124,137.78,133.29,138.08z"/>
	<path class="st4" d="M349.55,317.34c-37.38-19.52-83.5-5.04-103.02,32.34c-2.27,4.34-4.07,8.8-5.44,13.33
		c-0.1-12.12,2.68-24.44,8.68-35.95c19.52-37.38,65.64-51.86,103.02-32.34c33.03,17.25,48.18,55.28,37.78,89.69
		C390.32,357.12,375.42,330.85,349.55,317.34z"/>
	<path class="st4" d="M362.51,309.99c14.44-10.64,34.38-12.42,50.95-2.92c19.78,11.34,28.13,34.94,20.95,55.73
		c0.51-16.69-7.97-33.1-23.47-41.98c-13.35-7.65-28.89-7.98-41.98-2.25C367.14,315.3,364.98,312.4,362.51,309.99z"/>
	<path class="st4" d="M363.53,313.88c4.68-13.26,1.45-28.62-9.46-38.87c-13.02-12.24-32.63-13.1-46.58-2.96
		c12.4-4.2,26.65-1.59,36.85,8c8.79,8.26,12.59,19.84,11.29,30.96C358.49,311.62,361.16,312.58,363.53,313.88z"/>
	<path class="st5" d="M43.59,283.68c-0.5,1.58-0.29,3.29,0.56,4.7l74.58,123.92c0.54,0.89,1.28,1.59,2.13,2.07
		c1.67,0.93,3.77,1,5.56,0.03l75.8-41.25l4.99,86.02c0.12,2.04,1.29,3.78,2.96,4.71c0.85,0.47,1.83,0.74,2.88,0.72l144.62-2.09
		c1.65-0.03,3.22-0.76,4.29-2.01c1.07-1.25,1.56-2.91,1.33-4.55l-9.56-68.58c-0.35-2.48-2.25-4.45-4.72-4.88L210.23,358.3
		l-93.56-104.82c-1.67-1.86-4.35-2.44-6.64-1.43l-63.29,28.09C45.24,280.81,44.09,282.1,43.59,283.68z M213.62,370.59l129.27,22.52
		l8.08,57.95l-132.58,1.92L213.62,370.59z M57.39,288.03l53.48-23.73l87.38,97.89l-72.49,39.45L57.39,288.03z"/>
	<path class="st5" d="M77.85,336.15l-22.11,44.69l73.21,112.77l72.35-130.18l-80.3-89.04l4.33-8.81l-1.99,2.62l-13.44-11.19
		l-5.24,2.37l2.5-5.05c0.74-1.48,2.16-2.51,3.8-2.74c1.65-0.23,3.29,0.37,4.4,1.61l95.39,105.79l138.92,24.93
		c1.63,0.29,3.02,1.38,3.69,2.89c0.67,1.52,0.56,3.27-0.32,4.68l-5.19,8.37l-1.92-13.24l-15.01-3.56l-4.11,6.94l-116.14-20.84
		L138.34,499.3l134.42,2.63l27.57-44.46l11.94-0.26l-32.51,52.41c-0.93,1.5-2.58,2.4-4.35,2.37l-145.59-2.85
		c-0.83-0.02-1.63-0.24-2.34-0.63c-0.75-0.42-1.39-1.04-1.85-1.8c-0.2-0.21-0.38-0.43-0.55-0.68L45.8,383.9
		c-0.96-1.48-1.07-3.36-0.29-4.94l26.59-53.74L77.85,336.15z"/>
	<path class="st5" d="M346.6,391.35c1.82,1.01,4.17,0.75,5.72-0.79c1.88-1.87,1.89-4.91,0.02-6.79l-41.92-42.13
		c-1.87-1.88-4.91-1.89-6.79-0.02c-1.88,1.87-1.89,4.92-0.02,6.79l41.92,42.13C345.86,390.86,346.22,391.13,346.6,391.35z"/>
	<path class="st5" d="M110.31,260.44c-1.82-1.01-2.84-3.14-2.34-5.28c0.59-2.58,3.17-4.2,5.76-3.6l57.92,13.35
		c2.58,0.6,4.2,3.18,3.6,5.76c-0.59,2.59-3.17,4.2-5.76,3.6l-57.91-13.35C111.12,260.82,110.69,260.66,110.31,260.44z"/>
	<polygon class="st4" points="319.38,253.86 295.28,254.51 271.28,297.69 	"/>
	<polygon class="st4" points="241.29,208.26 253.46,229.07 229.46,272.25 	"/>
	<polygon class="st4" points="280.6,248.78 265.07,240.15 220,337.12 	"/>
	<path class="st6" d="M354.72,134.47c9.01-2.51,16.88-8.21,20.95-15.75c1.04-1.86,1.86-3.84,2.47-5.87
		c0.61-2.07,1.02-4.01,1.17-6.44c0.47-4.65,1.03-9.35,1.78-14.09c1.56-9.44,3.81-19.04,8.49-28.42c2.36-4.67,5.43-9.32,9.83-13.31
		c4.31-4.02,10.33-7.03,16.54-7.86c3.1-0.42,6.16-0.34,9.07,0.04c0.73,0.08,1.44,0.23,2.15,0.34l2.24,0.49
		c0.61,0.18,1.01,0.26,1.8,0.51c0.74,0.23,1.53,0.47,2.16,0.72c5.39,1.96,10.31,4.99,14.38,8.79c8.21,7.56,13.25,17.87,14.55,28.55
		c0.62,5.34,0.3,10.81-1.12,15.97c-1.39,5.16-3.87,9.98-7.13,14c-6.62,8.08-15.9,12.77-25.17,14.49
		c8.08-4.9,15.08-11.09,18.81-18.71c3.81-7.51,4.47-15.93,2.46-23.62c-1.91-7.71-6.43-14.66-12.25-19.42
		c-2.95-2.34-6.19-4.19-9.64-5.27c-0.45-0.16-0.79-0.23-1.17-0.34c-0.32-0.1-1.07-0.26-1.58-0.38l-1.19-0.23
		c-0.43-0.06-0.87-0.15-1.3-0.18c-1.72-0.19-3.36-0.19-4.89,0.05c-3.07,0.38-5.78,1.69-8.44,3.85c-2.65,2.17-5.07,5.24-7.24,8.71
		c-4.34,7-7.63,15.42-10.79,24l-4.8,13.13c-0.9,2.11-1.6,4.72-2.74,6.99c-1.09,2.31-2.42,4.52-3.98,6.53
		C373.81,129.82,364.07,134.13,354.72,134.47z"/>
	<path class="st6" d="M461.46,96.64c1.03,1.77,1.62,3.07,2.3,4.6c0.65,1.48,1.22,2.97,1.75,4.48c1.04,3.02,1.85,6.11,2.4,9.28
		c1.1,6.32,1.09,13.01-0.54,19.4c-1.59,6.4-4.86,12.3-9.06,17c-1.04,1.19-2.14,2.3-3.29,3.36c-1.34,1.22-2.65,2.18-4.09,3.08
		c-2.87,1.76-5.99,2.93-9.12,3.59c-6.29,1.32-12.51,0.78-18.28-0.67c-5.78-1.48-11.23-3.9-16.09-7.2c-2.42-1.66-4.71-3.55-6.68-5.77
		c-1.95-2.21-3.66-4.8-4.36-7.8c-0.76-3,0.09-6.34,2.04-8.53c1.92-2.25,4.44-3.68,7.01-4.77c-2.42,1.39-4.72,3.12-6.21,5.37
		c-1.53,2.24-1.83,5-0.93,7.39c0.87,2.41,2.61,4.49,4.57,6.24c1.98,1.76,4.25,3.23,6.62,4.47c4.75,2.47,9.96,4.06,15.18,4.75
		c5.21,0.68,10.49,0.41,15.07-1.16c2.28-0.78,4.37-1.89,6.13-3.3c0.87-0.69,1.73-1.52,2.37-2.28c0.81-0.94,1.58-1.93,2.27-2.95
		c2.81-4.04,4.57-8.52,5.14-13.14c0.59-4.62,0.04-9.38-1.34-13.98c-0.69-2.3-1.59-4.57-2.65-6.75c-0.53-1.09-1.1-2.16-1.71-3.19
		c-0.58-0.97-1.32-2.14-1.8-2.74L461.46,96.64z"/>
	<path class="st6" d="M451.38,156.45c-0.1,3.38-0.45,6.12-0.9,9.1c-0.46,2.92-1.07,5.81-1.83,8.68c-1.54,5.72-3.7,11.37-6.83,16.64
		c-3.12,5.24-7.32,10.09-12.55,13.6c-5.21,3.53-11.28,5.52-17.21,6.12c-2.95,0.32-5.94,0.32-8.77,0.1c-2.7-0.22-5.3-0.39-7.98-0.5
		c-5.31-0.22-10.62-0.21-15.86,0.32c-5.18,0.58-10.49,1.54-14.79,4.33c-2.12,1.39-3.85,3.38-4.7,5.84
		c-0.88,2.45-0.91,5.22-0.59,7.89c-0.65-2.61-1-5.4-0.4-8.17c0.58-2.77,2.26-5.33,4.44-7.18c4.44-3.73,9.99-5.43,15.35-6.74
		c5.42-1.25,10.92-1.95,16.41-2.42c2.72-0.23,5.53-0.4,8.23-0.53c2.57-0.11,5-0.42,7.38-0.97c4.74-1.08,9.01-3.16,12.44-6.16
		c3.44-2.99,6.06-6.85,7.96-11.15c1.9-4.31,3.1-9.04,3.78-13.88c0.34-2.42,0.55-4.88,0.64-7.33c0.08-2.39,0.06-5.06-0.15-7.07
		L451.38,156.45z"/>
	<path class="st6" d="M405.7,209.67c-3.2,9.8-9.2,18.73-16.91,26.04c-7.8,7.23-17.77,12.52-28.49,14.64
		c-2.67,0.56-5.38,0.94-8.09,1.17c-2.64,0.22-5.36,0.27-8.04,0.24c-5.38-0.1-10.83-0.64-16.28-2.02
		c-5.42-1.37-10.88-3.73-15.62-7.72c-4.77-3.92-8.28-10.09-9.01-16.39c-0.79-6.31,0.62-12.24,2.61-17.49
		c2.02-5.28,4.74-10.05,7.74-14.51c3.06-4.42,6.43-8.52,9.93-12.44c3.46-3.86,7.04-7.63,10.82-11.2c3.75-3.59,7.6-7.09,11.55-10.4
		c3.96-3.3,7.99-6.42,11.59-9.77c3.68-3.27,6.78-7.03,9.42-11.29c2.66-4.24,4.86-8.86,7.03-13.52c-1.01,5.04-2.36,10.03-4.34,14.89
		c-1.95,4.86-4.84,9.5-8.24,13.59c-7.01,7.98-14.33,14.73-20.93,22.34c-3.3,3.79-6.57,7.6-9.75,11.49c-3.12,3.84-6.05,7.8-8.6,11.9
		c-2.62,4.06-4.9,8.26-6.46,12.55c-1.57,4.27-2.33,8.64-1.84,12.51c0.44,3.87,2.22,7.23,5.27,9.89c3.02,2.7,7.15,4.54,11.52,5.91
		c4.41,1.35,9.15,2.08,13.96,2.39c2.42,0.17,4.81,0.18,7.27,0.18c2.38-0.01,4.76-0.15,7.13-0.45c9.44-1.19,18.63-4.75,26.59-10.51
		C393.52,226.01,400.4,218.43,405.7,209.67z"/>
	<path class="st6" d="M335.61,122.78c-4.18-8.38-5.05-19-0.97-28.43c1.02-2.33,2.32-4.55,3.83-6.62c1.45-2.08,3.4-3.94,4.83-5.75
		l9.24-10.49c6.02-6.88,11.84-13.79,15.92-20.95c2-3.56,3.54-7.16,4.19-10.52c0.62-3.37,0.48-6.37-0.66-9.26
		c-0.51-1.46-1.3-2.9-2.29-4.32c-0.23-0.36-0.53-0.7-0.78-1.06l-0.77-0.93c-0.36-0.39-0.85-0.97-1.1-1.2
		c-0.27-0.28-0.5-0.54-0.86-0.86c-2.6-2.51-5.77-4.47-9.24-5.94c-6.98-2.84-15.23-3.48-22.92-1.47
		c-7.71,1.91-14.79,6.52-19.57,13.46c-4.9,6.92-7,16.03-7.44,25.47c-2.92-8.97-3.25-19.36,0.69-29.04
		c1.97-4.79,5.02-9.27,8.89-12.96c3.85-3.71,8.5-6.61,13.48-8.62c10-3.97,21.47-4.46,32.03-0.87c5.29,1.75,10.3,4.63,14.59,8.42
		c0.52,0.44,1.11,1.01,1.67,1.56c0.6,0.58,0.87,0.88,1.31,1.34l1.5,1.73c0.45,0.58,0.91,1.12,1.33,1.73
		c1.73,2.37,3.26,5.02,4.37,7.95c2.23,5.85,2.47,12.58,1,18.29c-1.41,5.77-4.02,10.69-6.99,15c-6.01,8.6-13.35,15.16-20.91,21.05
		c-3.79,2.92-7.66,5.66-11.52,8.29c-2.07,1.3-3.57,2.58-5.1,4.11c-1.49,1.5-2.83,3.16-3.98,4.97
		C334.75,104.03,333.5,113.67,335.61,122.78z"/>
	<path class="st6" d="M316.45,26.83c-0.75-0.14-2.13-0.24-3.26-0.27c-1.19-0.04-2.41-0.03-3.62,0.02c-2.42,0.11-4.84,0.41-7.2,0.9
		c-4.7,0.98-9.14,2.78-12.91,5.5c-3.78,2.71-6.88,6.4-9.09,10.8c-1.13,2.27-2.01,4.4-2.36,6.58c-0.4,2.22-0.37,4.58,0.04,6.96
		c0.81,4.77,3.1,9.54,6.18,13.79c3.1,4.25,6.99,8.07,11.43,11.06c4.4,2.89,9.6,5.37,14.75,4.7c2.52-0.37,4.82-1.93,6.04-4.35
		c1.28-2.38,1.68-5.23,1.75-8.02c0.25,2.78,0.22,5.69-0.85,8.44c-0.98,2.78-3.51,5.1-6.5,5.88c-2.98,0.82-6.06,0.55-8.94-0.1
		c-2.89-0.67-5.64-1.77-8.26-3.1c-5.23-2.69-9.95-6.32-14.02-10.69c-4.03-4.38-7.48-9.58-9.33-15.73c-0.92-3.06-1.39-6.37-1.21-9.73
		c0.14-3.42,1.07-6.68,2.11-9.57c2.12-5.94,5.73-11.63,10.59-16.09c4.84-4.49,10.71-7.7,16.78-9.75c3.04-1.03,6.15-1.8,9.3-2.33
		c1.58-0.26,3.16-0.47,4.76-0.61c1.67-0.13,3.09-0.24,5.14-0.18L316.45,26.83z"/>
	<path class="st6" d="M277.24,62.64c-1.87,0.79-4.22,2.04-6.28,3.26c-2.11,1.25-4.17,2.61-6.13,4.07c-3.92,2.92-7.5,6.23-10.38,9.96
		c-2.88,3.73-5.01,7.87-5.99,12.32c-0.99,4.44-0.77,9.19,0.54,13.87c0.65,2.35,1.55,4.63,2.68,6.94c1.18,2.43,2.37,4.97,3.47,7.47
		c2.21,5.04,4.22,10.21,5.72,15.57c1.42,5.33,2.57,11.02,1.42,16.71c-0.58,2.81-2.02,5.51-4.18,7.34c-2.15,1.86-4.76,2.88-7.37,3.56
		c2.5-0.99,4.91-2.34,6.65-4.29c1.75-1.93,2.67-4.4,2.88-6.93c0.39-5.11-1.3-10.23-3.27-15.06c-2.04-4.85-4.58-9.52-7.3-14.08
		c-1.38-2.3-2.77-4.5-4.26-6.77c-1.55-2.38-2.98-5-4.11-7.75c-2.31-5.49-3.46-11.78-2.85-18.04c0.58-6.27,2.83-12.28,5.94-17.53
		c3.12-5.27,7.05-9.87,11.35-13.95c2.15-2.04,4.4-3.96,6.74-5.76c2.41-1.83,4.64-3.44,7.57-5.15L277.24,62.64z"/>
	<path class="st6" d="M245.18,113.97c-5.16,8.84-8.53,18.52-9.7,28.27c-1.25,9.74,0.02,19.52,3.49,28.37
		c0.87,2.21,1.88,4.38,3.02,6.47c1.17,2.17,2.33,4.25,3.63,6.3c2.58,4.07,5.49,7.89,8.78,11.12c3.3,3.18,6.88,5.93,10.7,7.29
		c3.8,1.41,7.6,1.36,11.21-0.1c3.63-1.42,7.11-4.18,10.1-7.6c3.02-3.42,5.62-7.44,7.94-11.68c2.38-4.21,4.46-8.68,6.34-13.26
		c1.89-4.65,3.67-9.34,5.43-14.05c3.52-9.44,5.95-19.1,9.61-29.07c1.96-4.94,4.66-9.69,7.99-13.73c3.33-4.06,7.06-7.63,11-10.93
		c-3.05,4.13-6.06,8.27-8.51,12.63c-2.49,4.35-4.3,8.88-5.41,13.67c-1.22,4.76-2.03,9.79-3.04,14.85
		c-1.02,5.05-2.25,10.11-3.61,15.12c-1.33,5.02-2.93,9.97-4.66,14.86c-1.76,4.96-3.76,9.87-6.18,14.67
		c-2.48,4.76-5.37,9.43-9.04,13.73c-3.66,4.25-8.19,8.32-14.11,10.65c-5.89,2.37-12.98,2.24-18.7-0.07
		c-5.78-2.26-10.46-5.92-14.25-10.03c-3.81-4.12-6.9-8.65-9.56-13.33c-1.31-2.33-2.57-4.75-3.64-7.17c-1.1-2.49-2.05-5.05-2.84-7.66
		c-3.27-10.43-3.39-21.72-0.77-32.02C233.13,131.01,238.11,121.47,245.18,113.97z"/>
	<path class="st6" d="M374.67,59.26c-4.27,11.71-9.35,23.01-14.75,34.15c-2.64,5.6-5.55,11.06-8.36,16.57
		c-2.89,5.47-5.91,10.87-8.9,16.29c-3.12,5.35-6.23,10.7-9.46,15.98c-3.32,5.23-6.55,10.52-10.09,15.62
		c-6.96,10.25-14.32,20.34-22.95,29.36l17.64-32.6c2.89-5.45,5.97-10.77,8.89-16.19l9.05-16.11l9.25-16
		c3.19-5.28,6.23-10.64,9.5-15.88C360.89,79.89,367.48,69.43,374.67,59.26z"/>
	<path class="st6" d="M391.17,73.11c-5.5,11.18-11.53,21.97-17.72,32.65c-3.04,5.38-6.28,10.62-9.4,15.94l-9.63,15.78l-9.81,15.65
		c-3.37,5.16-6.57,10.41-9.97,15.55l-20.19,31.08c3.79-11.89,9.13-23.18,14.8-34.2c2.79-5.55,5.89-10.91,8.89-16.33
		c3.1-5.36,6.31-10.66,9.51-15.95c3.32-5.22,6.62-10.45,10.04-15.61c3.49-5.11,6.89-10.27,10.56-15.27
		C375.43,92.32,382.93,82.45,391.17,73.11z"/>
	<path class="st6" d="M246.91,113.96c2.1-1.72,4.03-2.88,6.19-4.02c2.13-1.11,4.36-2.02,6.66-2.69c4.6-1.36,9.61-1.65,14.24-0.49
		c4.65,1.14,8.71,3.65,11.99,6.71c3.29,3.08,5.91,6.68,8.11,10.46c-2.75-3.4-5.85-6.5-9.36-8.9c-3.5-2.4-7.44-3.99-11.43-4.34
		c-3.98-0.36-7.92,0.5-11.49,2.18c-3.51,1.63-6.96,4.19-9.37,6.83L246.91,113.96z"/>
	<path class="st6" d="M393.72,203.6c1.17-3.37,1.76-7.62,1.52-11.49c-0.23-3.93-1.37-7.8-3.59-11.13c-2.21-3.33-5.5-6.03-9.27-7.96
		c-3.79-1.93-8-3.18-12.29-3.96c4.36,0.12,8.78,0.7,13.06,2.12c4.26,1.41,8.4,3.79,11.63,7.32c3.23,3.51,5.38,8.05,6.38,12.74
		c0.51,2.35,0.78,4.74,0.83,7.13c0.03,2.44-0.07,4.69-0.58,7.36L393.72,203.6z"/>
	<path class="st6" d="M287.21,195.62c-3.32-3.73-5.66-7.57-7.45-11.98c-1.73-4.34-2.56-9.24-1.7-13.92c0.81-4.7,3.32-8.8,6.43-11.93
		c3.14-3.15,6.81-5.52,10.62-7.46c-3.47,2.5-6.67,5.39-9.1,8.75c-2.42,3.35-3.94,7.22-3.98,11.07c-0.09,3.85,1.17,7.59,3.14,10.92
		c1.94,3.29,4.7,6.46,7.47,8.71L287.21,195.62z"/>
	<path class="st6" d="M314.58,203.68c3.31,1.36,7.42,2.27,11.23,2.4c3.87,0.13,7.75-0.55,11.09-2.47c3.36-1.88,6.03-5.06,7.82-8.79
		c1.79-3.74,2.8-7.94,3.33-12.18c0.12,4.28-0.21,8.64-1.47,12.9c-1.26,4.22-3.66,8.39-7.41,11.35c-3.71,2.99-8.4,4.6-13.04,5.16
		c-4.72,0.53-9.22,0.32-14.08-0.81L314.58,203.68z"/>
	<path class="st7" d="M349.61,19.61c0,0-40.01-16.74-41.21,46.1c0,0-9.33-20.43-6.63-34.35c0,0-18.47,1.64-19.69,21.24
		c0,0,11.61-13.42,18.07,10.72c6.07,22.67,10.89,6.74,12.24,1.52C313.73,59.63,312.64,31.78,349.61,19.61z"/>
	<path class="st7" d="M252.84,106.05c0,0-2.73-22.73,17.66-34.91c0,0-5.37,18.71-1.45,26.96
		C272.97,106.36,262.65,99.64,252.84,106.05z"/>
	<path class="st7" d="M243.92,172.97c0,0-8.8-25.83,0-47.96c0,0,19.57,20.93,10.66,33.76c0,0-5.11-9.44-7.67-2.33
		c-2.55,7.11,8.76,43.86,29.41,33.86C276.32,190.31,263.49,215.65,243.92,172.97z"/>
	<path class="st7" d="M437.3,73.19c0,0,33.85,27.12-20.75,58.25c0,0,22.41-1.59,33.33-10.62c0,0,7.4,17-9.22,27.46
		c0,0,6.22-16.61-18.07-10.73c-22.8,5.52-11.13-6.33-7.19-10.01C419.34,123.85,444.32,111.48,437.3,73.19z"/>
	<path class="st7" d="M407.73,199.53c0,0,21.26-8.49,22.19-32.22c0,0-13.86,13.67-22.98,14.18
		C397.82,182.01,408.67,187.85,407.73,199.53z"/>
	<path class="st7" d="M353.25,239.39c0,0,26.88-4.64,42.11-22.96c0,0-27.75-7.17-34.75,6.8c0,0,10.74-0.03,5.71,5.62
		c-5.02,5.65-42.7,13.31-43.81-9.62C322.51,219.24,306.4,242.64,353.25,239.39z"/>
	<polygon class="st8" points="61.91,288.63 73.22,308.61 124.85,286.03 110.19,268.38 	"/>
	<polygon class="st8" points="75.18,312.96 127.55,290.56 137.59,301.76 86.7,330.14 	"/>
	<path class="st9" d="M106.38,212.33c0,0,48.45-33.74,96.95,11.28C203.33,223.61,154.71,190.46,106.38,212.33z"/>
	<path class="st9" d="M172.7,161.39c0,0-17.84-29.31-52.98-19.99C119.71,141.4,147.33,139.96,172.7,161.39z"/>
	<path class="st9" d="M358.66,304.78c0,0,26.91,13.74,32.51,56.49C391.17,361.27,384.66,332.64,358.66,304.78z"/>
	<path class="st9" d="M408.98,307.45c0,0,27.16,10.17,27.12,44.58C436.1,352.03,429.79,321.4,408.98,307.45z"/>
	<path class="st9" d="M346.82,270.53c0,0,16.52,9.67,17.78,30.88l-4.5-3.28C360.09,298.13,362.51,285.03,346.82,270.53z"/>
</g>
</svg>
